<svg xmlns="http://www.w3.org/2000/svg" width="810" viewBox="210 220 400 400" height="810" version="1.0"><g fill="#FF914D"><g><g><path d="M 0 0 L 0 -154.296875 L 76.375 -154.296875 C 88.675781 -154.296875 99.65625 -152.800781 109.3125 -149.8125 C 118.96875 -146.820312 127.128906 -142.890625 133.796875 -138.015625 C 140.460938 -133.148438 145.503906 -127.597656 148.921875 -121.359375 C 152.335938 -115.128906 153.957031 -108.851562 153.78125 -102.53125 C 153.78125 -93.8125 150.789062 -85.4375 144.8125 -77.40625 C 139.007812 -69.539062 124.488281 -60.910156 101.25 -51.515625 L 150.71875 0 Z M 0 0" transform="translate(238.631 410.25)"/></g></g></g><g fill="#FF914D"><g><g><path d="M 0 0 L 0 -154.296875 L 76.640625 -154.296875 L 76.640625 -102.015625 L 115.078125 -102.015625 L 115.078125 -53.5625 L 153.78125 -53.5625 L 153.78125 0 Z M 0 0" transform="translate(428.564 410.25)"/></g></g></g><g fill="#74BB56"><g><g><path d="M 91.25 -76.375 C 104.0625 -76.375 114.523438 -77.1875 122.640625 -78.8125 C 130.765625 -80.4375 137.128906 -82.914062 141.734375 -86.25 C 146.347656 -89.582031 149.507812 -93.640625 151.21875 -98.421875 C 152.925781 -103.203125 153.78125 -108.84375 153.78125 -115.34375 C 153.78125 -140.96875 128.148438 -153.78125 76.890625 -153.78125 L 0 -153.78125 L 0 0 L 76.890625 0 C 128.148438 0 153.78125 -12.816406 153.78125 -38.453125 C 153.78125 -44.773438 152.925781 -50.328125 151.21875 -55.109375 C 149.507812 -59.890625 146.347656 -63.859375 141.734375 -67.015625 C 137.128906 -70.179688 130.765625 -72.53125 122.640625 -74.0625 C 114.523438 -75.601562 104.0625 -76.375 91.25 -76.375 Z M 91.25 -76.375" transform="translate(238.76 581.25)"/></g></g></g><g fill="#74BB56"><g><g><path d="M 153.78125 -76.890625 C 153.78125 -65.785156 151.859375 -55.535156 148.015625 -46.140625 C 144.171875 -36.742188 138.832031 -28.625 132 -21.78125 C 125.164062 -14.945312 117.046875 -9.609375 107.640625 -5.765625 C 98.242188 -1.921875 87.992188 0 76.890625 0 C 65.785156 0 55.535156 -1.921875 46.140625 -5.765625 C 36.742188 -9.609375 28.625 -14.945312 21.78125 -21.78125 C 14.945312 -28.625 9.609375 -36.742188 5.765625 -46.140625 C 1.921875 -55.535156 0 -65.785156 0 -76.890625 C 0 -87.992188 1.921875 -98.242188 5.765625 -107.640625 C 9.609375 -117.046875 14.945312 -125.164062 21.78125 -132 C 28.625 -138.832031 36.742188 -144.171875 46.140625 -148.015625 C 55.535156 -151.859375 65.785156 -153.78125 76.890625 -153.78125 C 88.171875 -153.78125 98.507812 -151.859375 107.90625 -148.015625 C 117.300781 -144.171875 125.375 -138.875 132.125 -132.125 C 138.875 -125.375 144.171875 -117.300781 148.015625 -107.90625 C 151.859375 -98.507812 153.78125 -88.171875 153.78125 -76.890625 Z M 153.78125 -76.890625" transform="translate(428.437 581.25)"/></g></g></g></svg>